<?xml version="1.0" encoding="UTF-8" standalone="no"?>
<svg
   xmlns:dc="http://purl.org/dc/elements/1.1/"
   xmlns:cc="http://creativecommons.org/ns#"
   xmlns:rdf="http://www.w3.org/1999/02/22-rdf-syntax-ns#"
   xmlns:svg="http://www.w3.org/2000/svg"
   xmlns="http://www.w3.org/2000/svg"
   xmlns:sodipodi="http://sodipodi.sourceforge.net/DTD/sodipodi-0.dtd"
   xmlns:inkscape="http://www.inkscape.org/namespaces/inkscape"
   viewBox="0 0 733.33118 88.555062"
   height="88.555061"
   width="733.33118"
   xml:space="preserve"
   id="svg2"
   version="1.1"
   inkscape:version="0.91 r13725"
   sodipodi:docname="flash_bang_splat.svg"><sodipodi:namedview
     pagecolor="#ffffff"
     bordercolor="#666666"
     borderopacity="1"
     objecttolerance="10"
     gridtolerance="10"
     guidetolerance="10"
     inkscape:pageopacity="0"
     inkscape:pageshadow="2"
     inkscape:window-width="640"
     inkscape:window-height="480"
     id="namedview46"
     showgrid="false"
     fit-margin-top="0"
     fit-margin-left="0"
     fit-margin-right="0"
     fit-margin-bottom="0"
     inkscape:zoom="0.2375"
     inkscape:cx="366.21761"
     inkscape:cy="29.671735"
     inkscape:window-x="0"
     inkscape:window-y="27"
     inkscape:window-maximized="0"
     inkscape:current-layer="svg2" /><metadata
     id="metadata8"><rdf:RDF><cc:Work
         rdf:about=""><dc:format>image/svg+xml</dc:format><dc:type
           rdf:resource="http://purl.org/dc/dcmitype/StillImage" /><dc:title></dc:title></cc:Work></rdf:RDF></metadata><defs
     id="defs6"><clipPath
       id="clipPath18"
       clipPathUnits="userSpaceOnUse"><path
         id="path16"
         d="M 0,560 960,560 960,0 0,0 Z"
         inkscape:connector-curvature="0" /></clipPath></defs><g
     transform="matrix(1.3333333,0,0,-1.3333333,-273.78239,432.21666)"
     id="g10"><g
       id="g12"><g
         clip-path="url(#clipPath18)"
         id="g14"><g
           transform="translate(342.7446,292)"
           id="g20"><path
             id="path22"
             style="fill:#f7931e;fill-opacity:1;fill-rule:nonzero;stroke:none"
             d="m 0,0 43.446,0 c 0.949,0 1.731,-0.355 2.346,-1.066 0.617,-0.711 0.924,-1.565 0.924,-2.56 0,-0.996 -0.307,-1.826 -0.924,-2.489 C 45.177,-6.779 44.395,-7.11 43.446,-7.11 L 0,-7.11 c -0.948,0 -1.73,0.331 -2.347,0.995 -0.615,0.663 -0.924,1.493 -0.924,2.489 0,0.995 0.309,1.849 0.924,2.56 C -1.73,-0.355 -0.948,0 0,0"
             inkscape:connector-curvature="0" /></g><g
           transform="translate(212.4468,303.2568)"
           id="g24"><path
             id="path26"
             style="fill:#4d4d4d;fill-opacity:1;fill-rule:nonzero;stroke:none"
             d="m 0,0 11.021,0 c 1.091,0 1.932,-0.332 2.525,-0.996 0.592,-0.664 0.889,-1.446 0.889,-2.346 0,-0.901 -0.297,-1.695 -0.889,-2.382 -0.593,-0.688 -1.434,-1.031 -2.525,-1.031 L 0,-6.755 0,-25.812 c 0,-0.949 -0.355,-1.731 -1.066,-2.346 -0.711,-0.616 -1.565,-0.924 -2.56,-0.924 -0.996,0 -1.826,0.308 -2.489,0.924 -0.664,0.615 -0.995,1.397 -0.995,2.346 l 0,43.304 c 0,0.9 0.319,1.659 0.96,2.276 0.639,0.615 1.433,0.924 2.381,0.924 l 20.835,0 c 0.9,0 1.659,-0.332 2.275,-0.996 0.616,-0.664 0.925,-1.469 0.925,-2.417 0,-0.949 -0.309,-1.742 -0.925,-2.382 -0.616,-0.64 -1.375,-0.96 -2.275,-0.96 L 0,13.937 Z"
             inkscape:connector-curvature="0" /></g><g
           transform="translate(264.3545,277.7295)"
           id="g28"><path
             id="path30"
             style="fill:#4d4d4d;fill-opacity:1;fill-rule:nonzero;stroke:none"
             d="M 0,0 C 0,-0.9 -0.273,-1.683 -0.818,-2.347 -1.363,-3.011 -2.158,-3.342 -3.2,-3.342 l -18.772,0 c -0.949,0 -1.778,0.308 -2.489,0.925 -0.711,0.615 -1.066,1.374 -1.066,2.275 l 0,43.304 c 0,0.947 0.331,1.73 0.995,2.346 0.663,0.616 1.493,0.925 2.489,0.925 0.995,0 1.849,-0.309 2.56,-0.925 0.711,-0.616 1.066,-1.399 1.066,-2.346 l 0,-39.749 15.217,0 c 1.042,0 1.837,-0.332 2.382,-0.995 C -0.273,1.754 0,0.948 0,0"
             inkscape:connector-curvature="0" /></g><g
           transform="translate(289.9517,292.5908)"
           id="g32"><path
             id="path34"
             style="fill:#4d4d4d;fill-opacity:1;fill-rule:nonzero;stroke:none"
             d="M 0,0 -5.475,18.772 -10.95,0 Z m 1.991,-6.755 -14.932,0 -2.702,-9.244 c -0.475,-1.612 -1.612,-2.417 -3.413,-2.417 -1.28,0 -2.229,0.462 -2.844,1.386 -0.617,0.925 -0.759,1.931 -0.427,3.022 l 12.87,42.877 c 0.521,1.707 1.801,2.607 3.84,2.702 l 0.142,0 c 2.133,0 3.46,-0.901 3.982,-2.702 l 12.87,-42.877 c 0.331,-1.091 0.189,-2.097 -0.426,-3.022 -0.617,-0.924 -1.565,-1.386 -2.845,-1.386 -1.802,0 -2.939,0.805 -3.413,2.417 z"
             inkscape:connector-curvature="0" /></g><g
           transform="translate(335.1045,312.3584)"
           id="g36"><path
             id="path38"
             style="fill:#4d4d4d;fill-opacity:1;fill-rule:nonzero;stroke:none"
             d="m 0,0 c 0,-0.949 -0.309,-1.742 -0.924,-2.382 -0.617,-0.64 -1.447,-0.96 -2.489,-0.96 -2.039,0 -3.2,0.925 -3.484,2.773 -0.569,3.84 -2.773,5.76 -6.613,5.76 l -0.427,0 c -1.754,0 -3.224,-0.605 -4.409,-1.814 -1.185,-1.208 -1.777,-2.69 -1.777,-4.443 0,-2.845 1.28,-4.907 3.839,-6.187 l 9.529,-4.906 c 5.071,-2.655 7.608,-6.826 7.608,-12.515 0,-3.982 -1.351,-7.229 -4.053,-9.741 -2.702,-2.514 -6.069,-3.769 -10.097,-3.769 l -0.711,0 c -3.935,0 -7.278,1.245 -10.026,3.733 -2.75,2.489 -4.124,5.842 -4.124,10.061 0,1.09 0.343,1.932 1.031,2.525 0.687,0.593 1.504,0.888 2.453,0.888 0.947,0 1.789,-0.308 2.524,-0.923 0.734,-0.618 1.102,-1.448 1.102,-2.49 0,-2.228 0.652,-3.97 1.956,-5.225 1.303,-1.257 2.997,-1.885 5.084,-1.885 l 0.711,0 c 2.086,0 3.769,0.615 5.048,1.849 1.28,1.232 1.92,2.89 1.92,4.977 0,2.797 -1.541,5.001 -4.622,6.613 l -9.315,4.835 c -4.598,2.418 -6.897,6.4 -6.897,11.946 0,3.744 1.327,6.862 3.982,9.351 2.655,2.489 5.735,3.733 9.244,3.733 l 0.427,0 c 3.84,0 7.05,-1.102 9.635,-3.306 C -1.292,6.293 0,3.46 0,0"
             inkscape:connector-curvature="0" /></g><g
           transform="translate(353.0225,320.8911)"
           id="g40"><path
             id="path42"
             style="fill:#4d4d4d;fill-opacity:1;fill-rule:nonzero;stroke:none"
             d="m 0,0 0,-43.446 c 0,-0.949 -0.355,-1.731 -1.066,-2.346 -0.711,-0.617 -1.565,-0.924 -2.56,-0.924 -0.996,0 -1.826,0.307 -2.489,0.924 -0.664,0.615 -0.995,1.397 -0.995,2.346 L -7.11,0 c 0,0.948 0.331,1.73 0.995,2.347 0.663,0.615 1.493,0.924 2.489,0.924 0.995,0 1.849,-0.309 2.56,-0.924 C -0.355,1.73 0,0.948 0,0"
             inkscape:connector-curvature="0" /></g><g
           transform="translate(383.0225,320.8911)"
           id="g44"><path
             id="path46"
             style="fill:#4d4d4d;fill-opacity:1;fill-rule:nonzero;stroke:none"
             d="m 0,0 0,-43.446 c 0,-0.949 -0.355,-1.731 -1.066,-2.346 -0.711,-0.617 -1.565,-0.924 -2.56,-0.924 -0.996,0 -1.826,0.307 -2.489,0.924 -0.664,0.615 -0.995,1.397 -0.995,2.346 L -7.11,0 c 0,0.948 0.331,1.73 0.995,2.347 0.663,0.615 1.493,0.924 2.489,0.924 0.995,0 1.849,-0.309 2.56,-0.924 C -0.355,1.73 0,0.948 0,0"
             inkscape:connector-curvature="0" /></g><g
           transform="translate(342.7446,312)"
           id="g48"><path
             id="path50"
             style="fill:#f7931e;fill-opacity:1;fill-rule:nonzero;stroke:none"
             d="m 0,0 43.446,0 c 0.949,0 1.731,-0.355 2.346,-1.066 0.617,-0.711 0.924,-1.565 0.924,-2.56 0,-0.996 -0.307,-1.826 -0.924,-2.489 C 45.177,-6.779 44.395,-7.11 43.446,-7.11 L 0,-7.11 c -0.948,0 -1.73,0.331 -2.347,0.995 -0.615,0.663 -0.924,1.493 -0.924,2.489 0,0.995 0.309,1.849 0.924,2.56 C -1.73,-0.355 -0.948,0 0,0"
             inkscape:connector-curvature="0" /></g><g
           transform="translate(427.272,296.5732)"
           id="g52"><path
             id="path54"
             style="fill:#4d4d4d;fill-opacity:1;fill-rule:nonzero;stroke:none"
             d="m 0,0 0,-15.431 7.466,0 c 1.992,0 3.686,0.711 5.084,2.134 1.398,1.422 2.098,3.104 2.098,5.048 l 0,0.641 c 0,2.037 -0.735,3.815 -2.204,5.333 C 10.974,-0.759 9.291,0 7.396,0 Z m 0,6.755 6.471,0 c 1.849,0 3.413,0.686 4.693,2.062 1.28,1.374 1.92,3.128 1.92,5.262 l 0,0.071 c 0,1.991 -0.605,3.566 -1.813,4.728 -1.209,1.162 -2.809,1.743 -4.8,1.743 l -6.471,0 z m 7.893,-28.941 -11.662,0 c -0.948,0 -1.742,0.308 -2.381,0.925 -0.641,0.615 -0.96,1.398 -0.96,2.346 l 0,43.091 c 0,0.9 0.319,1.658 0.96,2.275 0.639,0.616 1.433,0.924 2.381,0.924 l 10.666,0 c 3.84,0 7.016,-1.244 9.529,-3.732 2.512,-2.489 3.768,-5.653 3.768,-9.493 l 0,-0.071 c 0,-4.647 -1.683,-8.154 -5.048,-10.524 1.753,-0.807 3.294,-2.335 4.622,-4.586 1.326,-2.252 1.991,-4.445 1.991,-6.577 l 0,-0.641 c 0,-3.84 -1.351,-7.122 -4.053,-9.848 -2.703,-2.726 -5.973,-4.089 -9.813,-4.089"
             inkscape:connector-curvature="0" /></g><g
           transform="translate(476.1929,292.5908)"
           id="g56"><path
             id="path58"
             style="fill:#4d4d4d;fill-opacity:1;fill-rule:nonzero;stroke:none"
             d="M 0,0 -5.475,18.772 -10.95,0 Z m 1.991,-6.755 -14.932,0 -2.702,-9.244 c -0.475,-1.612 -1.612,-2.417 -3.413,-2.417 -1.28,0 -2.229,0.462 -2.844,1.386 -0.617,0.925 -0.759,1.931 -0.427,3.022 l 12.87,42.877 c 0.521,1.707 1.801,2.607 3.84,2.702 l 0.142,0 c 2.133,0 3.46,-0.901 3.982,-2.702 l 12.87,-42.877 c 0.331,-1.091 0.189,-2.097 -0.426,-3.022 -0.617,-0.924 -1.565,-1.386 -2.845,-1.386 -1.802,0 -2.939,0.805 -3.413,2.417 z"
             inkscape:connector-curvature="0" /></g><g
           transform="translate(499.1738,320.9624)"
           id="g60"><path
             id="path62"
             style="fill:#f7931e;fill-opacity:1;fill-rule:nonzero;stroke:none"
             d="M 0,0 C 0,0.9 0.33,1.659 0.995,2.275 1.658,2.891 2.464,3.2 3.412,3.2 l 1.139,0 c 1.752,0 2.986,-0.783 3.697,-2.347 l 14.008,-30.646 0,29.722 c 0,0.947 0.33,1.73 0.996,2.346 0.662,0.616 1.492,0.925 2.488,0.925 0.996,0 1.848,-0.309 2.559,-0.925 0.713,-0.616 1.068,-1.399 1.068,-2.346 l 0,-43.517 c 0,-0.902 -0.334,-1.661 -0.996,-2.276 -0.664,-0.616 -1.471,-0.924 -2.418,-0.924 l -1.137,0 c -1.849,0 -3.082,0.711 -3.699,2.133 L 7.109,-13.794"
             inkscape:connector-curvature="0" /></g><g
           transform="translate(551.417,303.0435)"
           id="g64"><path
             id="path66"
             style="fill:#4d4d4d;fill-opacity:1;fill-rule:nonzero;stroke:none"
             d="m 0,0 9.458,0 c 0.947,0 1.765,-0.332 2.453,-0.996 0.687,-0.664 1.03,-1.469 1.03,-2.417 l 0,-11.164 c 0,-4.077 -1.375,-7.478 -4.124,-10.204 -2.75,-2.726 -6.211,-4.088 -10.381,-4.088 l -0.285,0 c -4.172,0 -7.608,1.338 -10.31,4.017 -2.702,2.678 -4.053,6.056 -4.053,10.133 l 0,21.545 c 0,4.077 1.362,7.478 4.089,10.204 2.726,2.725 6.15,4.089 10.274,4.089 l 0.072,0 c 3.555,0 6.695,-1.008 9.422,-3.022 2.725,-2.016 4.373,-4.705 4.941,-8.071 C 12.775,8.888 12.503,7.952 11.769,7.217 11.033,6.482 10.192,6.115 9.244,6.115 7.49,6.115 6.4,6.85 5.974,8.319 4.693,12.348 2.157,14.364 -1.635,14.364 l -0.214,0 c -2.275,0 -4.052,-0.712 -5.333,-2.134 -1.279,-1.422 -1.92,-3.247 -1.92,-5.475 l 0,-21.26 c 0,-2.229 0.641,-4.054 1.92,-5.476 1.281,-1.422 3.058,-2.133 5.333,-2.133 l 0.285,0 c 2.276,0 4.077,0.711 5.404,2.133 1.327,1.422 1.991,3.247 1.991,5.476 l 0,7.75 -5.831,0 c -0.9,0 -1.659,0.32 -2.275,0.96 -0.617,0.64 -0.924,1.433 -0.924,2.382 0,0.948 0.307,1.753 0.924,2.417 C -1.659,-0.332 -0.9,0 0,0"
             inkscape:connector-curvature="0" /></g><g
           transform="translate(620.8174,312.3584)"
           id="g68"><path
             id="path70"
             style="fill:#4d4d4d;fill-opacity:1;fill-rule:nonzero;stroke:none"
             d="m 0,0 c 0,-0.949 -0.309,-1.742 -0.925,-2.382 -0.616,-0.64 -1.446,-0.96 -2.488,-0.96 -2.039,0 -3.2,0.925 -3.484,2.773 -0.57,3.84 -2.774,5.76 -6.614,5.76 l -0.427,0 c -1.753,0 -3.223,-0.605 -4.408,-1.814 -1.185,-1.208 -1.777,-2.69 -1.777,-4.443 0,-2.845 1.279,-4.907 3.84,-6.187 l 9.528,-4.906 c 5.071,-2.655 7.609,-6.826 7.609,-12.515 0,-3.982 -1.352,-7.229 -4.054,-9.741 -2.702,-2.514 -6.069,-3.769 -10.097,-3.769 l -0.711,0 c -3.935,0 -7.277,1.245 -10.026,3.733 -2.75,2.489 -4.124,5.842 -4.124,10.061 0,1.09 0.343,1.932 1.031,2.525 0.687,0.593 1.504,0.888 2.453,0.888 0.947,0 1.788,-0.308 2.525,-0.923 0.734,-0.618 1.101,-1.448 1.101,-2.49 0,-2.228 0.652,-3.97 1.956,-5.225 1.303,-1.257 2.997,-1.885 5.084,-1.885 l 0.711,0 c 2.085,0 3.769,0.615 5.049,1.849 1.279,1.232 1.919,2.89 1.919,4.977 0,2.797 -1.541,5.001 -4.621,6.613 l -9.316,4.835 c -4.598,2.418 -6.897,6.4 -6.897,11.946 0,3.744 1.327,6.862 3.982,9.351 2.655,2.489 5.736,3.733 9.243,3.733 l 0.427,0 c 3.84,0 7.051,-1.102 9.636,-3.306 C -1.292,6.293 0,3.46 0,0"
             inkscape:connector-curvature="0" /></g><g
           transform="translate(690.4863,277.7295)"
           id="g72"><path
             id="path74"
             style="fill:#4d4d4d;fill-opacity:1;fill-rule:nonzero;stroke:none"
             d="M 0,0 C 0,-0.9 -0.273,-1.683 -0.818,-2.347 -1.363,-3.011 -2.158,-3.342 -3.2,-3.342 l -18.772,0 c -0.949,0 -1.778,0.308 -2.489,0.925 -0.711,0.615 -1.066,1.374 -1.066,2.275 l 0,43.304 c 0,0.947 0.331,1.73 0.995,2.346 0.664,0.616 1.493,0.925 2.489,0.925 0.995,0 1.849,-0.309 2.56,-0.925 0.711,-0.616 1.066,-1.399 1.066,-2.346 l 0,-39.749 15.217,0 c 1.042,0 1.837,-0.332 2.382,-0.995 C -0.273,1.754 0,0.948 0,0"
             inkscape:connector-curvature="0" /></g><g
           transform="translate(716.084,292.5908)"
           id="g76"><path
             id="path78"
             style="fill:#4d4d4d;fill-opacity:1;fill-rule:nonzero;stroke:none"
             d="M 0,0 -5.476,18.772 -10.95,0 Z m 1.99,-6.755 -14.931,0 -2.703,-9.244 c -0.474,-1.612 -1.612,-2.417 -3.413,-2.417 -1.28,0 -2.228,0.462 -2.844,1.386 -0.617,0.925 -0.759,1.931 -0.427,3.022 l 12.871,42.877 c 0.52,1.707 1.801,2.607 3.839,2.702 l 0.142,0 c 2.134,0 3.46,-0.901 3.983,-2.702 l 12.87,-42.877 c 0.331,-1.091 0.188,-2.097 -0.427,-3.022 -0.617,-0.924 -1.564,-1.386 -2.845,-1.386 -1.801,0 -2.939,0.805 -3.413,2.417 z"
             inkscape:connector-curvature="0" /></g><g
           transform="translate(744.2422,317.1938)"
           id="g80"><path
             id="path82"
             style="fill:#4d4d4d;fill-opacity:1;fill-rule:nonzero;stroke:none"
             d="m 0,0 0,-39.749 c 0,-0.949 -0.355,-1.731 -1.066,-2.346 -0.711,-0.616 -1.565,-0.924 -2.56,-0.924 -0.996,0 -1.826,0.308 -2.489,0.924 -0.664,0.615 -0.995,1.397 -0.995,2.346 l 0,39.749 -7.68,0 c -1.091,0 -1.932,0.331 -2.524,0.996 -0.593,0.663 -0.889,1.468 -0.889,2.417 0,0.9 0.296,1.682 0.889,2.346 0.592,0.664 1.433,0.996 2.524,0.996 l 22.47,0 c 1.09,0 1.93,-0.332 2.524,-0.996 0.592,-0.664 0.889,-1.446 0.889,-2.346 0,-0.949 -0.297,-1.754 -0.889,-2.417 C 9.61,0.331 8.77,0 7.68,0 Z"
             inkscape:connector-curvature="0" /></g><g
           transform="translate(497.3301,278.1582)"
           id="g84"><path
             id="path86"
             style="fill:#f7931e;fill-opacity:1;fill-rule:nonzero;stroke:none"
             d="m 0,0 0,41.563 c 0,1.024 0.377,1.903 1.134,2.632 0.756,0.729 1.673,1.094 2.754,1.094 1.08,0 1.997,-0.365 2.754,-1.094 0.755,-0.729 1.134,-1.608 1.134,-2.632 L 7.776,0 C 7.776,-1.025 7.397,-1.902 6.642,-2.633 5.885,-3.361 4.968,-3.725 3.888,-3.725 2.807,-3.725 1.89,-3.361 1.134,-2.633 0.377,-1.902 0,-1.025 0,0 m -0.324,-16.686 0,2.43 c 0,1.08 0.405,1.971 1.215,2.674 0.81,0.701 1.782,1.053 2.916,1.053 1.187,0 2.2,-0.352 3.038,-1.053 0.836,-0.703 1.255,-1.594 1.255,-2.674 l 0,-2.43 c 0,-1.08 -0.419,-1.972 -1.255,-2.673 -0.838,-0.702 -1.851,-1.053 -3.038,-1.053 -1.134,0 -2.106,0.351 -2.916,1.053 -0.81,0.701 -1.215,1.593 -1.215,2.673"
             inkscape:connector-curvature="0" /></g><g
           transform="translate(652.0312,306.8018)"
           id="g88"><path
             id="path90"
             style="fill:#f7931e;fill-opacity:1;fill-rule:nonzero;stroke:none"
             d="m 0,0 c -0.44,-0.424 -0.959,-0.605 -1.555,-0.542 l -1.553,0.142 -1.744,0.188 0.943,-1.319 0.989,-1.319 c 0.376,-0.534 0.478,-1.091 0.306,-1.672 -0.173,-0.582 -0.542,-1.06 -1.107,-1.436 -0.471,-0.283 -1.013,-0.347 -1.625,-0.189 -0.612,0.157 -1.06,0.502 -1.342,1.036 l -0.66,1.555 -0.66,1.507 -0.659,-1.46 -0.707,-1.554 c -0.314,-0.66 -0.776,-1.045 -1.389,-1.155 -0.612,-0.11 -1.154,0.008 -1.625,0.353 -0.534,0.283 -0.887,0.691 -1.059,1.225 -0.174,0.534 -0.072,1.115 0.304,1.743 l 1.084,1.507 0.849,1.178 -1.743,-0.188 -1.555,-0.142 c -0.596,-0.063 -1.115,0.118 -1.554,0.542 -0.44,0.424 -0.66,0.949 -0.66,1.578 0,0.596 0.212,1.138 0.636,1.625 0.424,0.486 0.949,0.698 1.578,0.636 l 3.298,-0.377 -1.037,1.413 -0.896,1.272 c -0.344,0.471 -0.455,0.996 -0.329,1.578 0.125,0.58 0.455,1.044 0.99,1.389 0.471,0.345 1.044,0.448 1.719,0.306 0.675,-0.141 1.138,-0.494 1.389,-1.059 l 0.66,-1.507 0.706,-1.555 0.66,1.46 0.706,1.602 c 0.283,0.628 0.738,1.004 1.367,1.13 0.628,0.125 1.161,0.031 1.601,-0.283 C -3.141,8.895 -2.779,8.47 -2.591,7.937 -2.402,7.402 -2.496,6.822 -2.874,6.194 L -4.004,4.64 -4.852,3.462 -1.555,3.839 C -0.927,3.901 -0.4,3.689 0.023,3.203 0.447,2.716 0.66,2.174 0.66,1.578 0.66,0.949 0.439,0.424 0,0 m 3.163,13.049 c -2.702,2.748 -5.726,4.149 -9.566,4.149 l -11.661,0 c -0.949,0 -1.555,-0.334 -2.195,-0.95 -0.639,-0.616 -0.772,-1.401 -0.772,-2.301 l 0,-43.303 c 0,-0.95 0.143,-1.732 0.807,-2.347 0.664,-0.616 1.4,-0.924 2.396,-0.924 0.995,0 1.933,0.308 2.644,0.924 0.711,0.615 1.153,1.397 1.153,2.347 l 0,17.554 8.126,0 c 3.792,0 6.721,1.533 9.281,4.235 2.56,2.702 3.593,6.179 3.593,10.066 l 0,0.64 c 0,3.84 -1.104,7.16 -3.806,9.91"
             inkscape:connector-curvature="0" /></g></g></g></g></svg>